<svg width="204" height="150" viewBox="0 0 204 150" fill="none" xmlns="http://www.w3.org/2000/svg">
<path opacity="0.8" d="M84.2931 120V36H97.0131L135.293 83.4H130.733L169.013 36H181.733V120H168.773V84.36C168.773 77.72 168.933 71.48 169.253 65.64C169.573 59.8 170.213 53.84 171.173 47.76L172.493 52.68L136.973 95.88H129.053L93.5331 52.68L94.8531 47.76C95.8131 53.84 96.4531 59.8 96.7731 65.64C97.0931 71.48 97.2531 77.72 97.2531 84.36V120H84.2931Z" fill="#916F50"/>
<path d="M11.5088 120L52.5488 36H67.6688L108.469 120H94.1888L65.9888 62.16C65.2688 60.64 64.5487 59.16 63.8287 57.72C63.1088 56.28 62.3888 54.84 61.6688 53.4C61.0288 51.96 60.3888 50.44 59.7488 48.84C59.1088 47.24 58.4688 45.48 57.8288 43.56L61.6688 43.44C60.9488 45.36 60.2288 47.16 59.5088 48.84C58.8688 50.52 58.1888 52.12 57.4688 53.64C56.7488 55.16 56.0288 56.68 55.3088 58.2C54.5888 59.64 53.8688 61.12 53.1488 62.64L25.1888 120H11.5088ZM29.3888 100.32L34.5488 87.84H84.3488L86.3888 100.32H29.3888Z" fill="white"/>
</svg>
