<svg width="180" height="180" viewBox="0 0 180 180" fill="none" xmlns="http://www.w3.org/2000/svg">
<path d="M0 0H180V180H0V0Z" fill="white"/>
<path opacity="0.8" d="M79.9109 125V55H90.5109L122.411 94.5H118.611L150.511 55H161.111V125H150.311V95.3C150.311 89.7667 150.444 84.5667 150.711 79.7C150.978 74.8333 151.511 69.8667 152.311 64.8L153.411 68.9L123.811 104.9H117.211L87.6109 68.9L88.7109 64.8C89.5109 69.8667 90.0443 74.8333 90.3109 79.7C90.5776 84.5667 90.7109 89.7667 90.7109 95.3V125H79.9109Z" fill="#858D5D"/>
<path d="M19.0745 125L53.2745 55H65.8745L99.8745 125H87.9745L64.4745 76.8C63.8745 75.5333 63.2745 74.3 62.6745 73.1C62.0745 71.9 61.4745 70.7 60.8745 69.5C60.3412 68.3 59.8078 67.0333 59.2745 65.7C58.7412 64.3667 58.2078 62.9 57.6745 61.3L60.8745 61.2C60.2745 62.8 59.6745 64.3 59.0745 65.7C58.5412 67.1 57.9745 68.4333 57.3745 69.7C56.7745 70.9667 56.1745 72.2333 55.5745 73.5C54.9745 74.7 54.3745 75.9333 53.7745 77.2L30.4745 125H19.0745ZM33.9745 108.6L38.2745 98.2H79.7745L81.4745 108.6H33.9745Z" fill="black"/>
</svg>
